<svg width="24" height="24" viewBox="0 0 24 24" fill="none" xmlns="http://www.w3.org/2000/svg">
<circle cx="12" cy="12" r="12" fill="#434343"/>
<path d="M12 4V4C12.4418 4 12.8 4.35817 12.8 4.8V11.2H19.2C19.6418 11.2 20 11.5582 20 12V12V12C20 12.4418 19.6418 12.8 19.2 12.8H12.8V19.2C12.8 19.6418 12.4418 20 12 20V20V20C11.5582 20 11.2 19.6418 11.2 19.2V12.8H4.8C4.35817 12.8 4 12.4418 4 12V12V12C4 11.5582 4.35817 11.2 4.8 11.2H11.2V4.8C11.2 4.35817 11.5582 4 12 4V4Z" fill="#D9D9D9" stroke="#DDDDDD"/>
</svg>
