<svg width="26" height="24" viewBox="0 0 26 24" fill="none" xmlns="http://www.w3.org/2000/svg">
<path d="M10.8765 1.55313C12.1505 1.23465 13.4832 1.23465 14.7571 1.55313L15.8619 1.82934C16.675 2.03259 17.451 2.36233 18.1617 2.80649L19.2366 3.47834C20.5738 4.31409 21.4384 5.73167 21.5693 7.30311L22.3989 17.2579C22.4186 17.4936 22.5211 17.7147 22.6884 17.882L24.78 19.9736C25.0949 20.2886 24.8719 20.8271 24.4264 20.8271H1.20723C0.761778 20.8271 0.538693 20.2886 0.853675 19.9736L2.94528 17.882C3.11252 17.7147 3.21507 17.4936 3.23472 17.2579L4.06428 7.30311C4.19524 5.73167 5.05982 4.31409 6.39702 3.47834L7.47198 2.80649C8.18264 2.36233 8.95867 2.03259 9.77169 1.82934L10.8765 1.55313Z" fill="#434343"/>
<path d="M12.3388 0.238825C12.6395 0.0884812 12.9934 0.0884812 13.2941 0.238825L13.4734 0.328465C13.7254 0.454448 13.8845 0.711977 13.8845 0.993684V0.993684C13.8845 1.03476 13.8512 1.06806 13.8102 1.06806H11.8228C11.7817 1.06806 11.7484 1.03476 11.7484 0.993684V0.993684C11.7484 0.711977 11.9076 0.454448 12.1595 0.328465L12.3388 0.238825Z" fill="#434343"/>
<path d="M13.4005 23.2046C13.0328 23.3884 12.6 23.3884 12.2322 23.2046V23.2046C11.9224 23.0496 11.6868 22.778 11.5772 22.4493L11.3483 21.7625C11.2824 21.5647 11.4296 21.3605 11.638 21.3605H13.9947C14.2032 21.3605 14.3504 21.5647 14.2845 21.7625L14.0555 22.4493C13.946 22.778 13.7104 23.0496 13.4005 23.2046V23.2046Z" fill="#434343"/>
</svg>
