<svg width="16" height="24" viewBox="0 0 16 24" fill="none" xmlns="http://www.w3.org/2000/svg">
<path d="M0.8 0.75H15.2C15.2276 0.75 15.25 0.772386 15.25 0.8V22.237C15.25 22.2486 15.2484 22.2549 15.2476 22.2574C15.2468 22.2601 15.2458 22.2622 15.2444 22.2642C15.2413 22.2687 15.2338 22.2765 15.2207 22.2825C15.2075 22.2885 15.1967 22.289 15.1912 22.2883C15.1888 22.288 15.1866 22.2874 15.184 22.2863C15.1816 22.2852 15.1759 22.2823 15.1671 22.2746L9.02068 16.8965C8.43629 16.3852 7.56371 16.3852 6.97932 16.8965L0.832924 22.2746C0.824146 22.2823 0.818361 22.2852 0.815964 22.2863C0.813381 22.2874 0.811186 22.288 0.80878 22.2883C0.803291 22.289 0.792493 22.2885 0.77934 22.2825C0.766186 22.2765 0.758703 22.2687 0.755601 22.2642C0.754241 22.2622 0.753228 22.2601 0.752393 22.2574C0.751619 22.2549 0.75 22.2486 0.75 22.237V0.799999C0.75 0.772386 0.772385 0.75 0.8 0.75Z" stroke="#434343" stroke-width="1.5"/>
</svg>
