<svg width="24" height="21" viewBox="0 0 24 21" fill="none" xmlns="http://www.w3.org/2000/svg">
<path d="M5.54053 8.43244C5.54053 6.54682 5.54053 5.60401 6.12631 5.01822C6.7121 4.43243 7.65491 4.43243 9.54053 4.43243H19.8243C21.7099 4.43243 22.6527 4.43243 23.2385 5.01822C23.8243 5.60401 23.8243 6.54682 23.8243 8.43243V16.6216V19.3981C23.8243 19.8728 23.8243 20.1102 23.6776 20.1767C23.5309 20.2433 23.3523 20.087 22.9951 19.7744L19.6746 16.869C19.5348 16.7467 19.4649 16.6855 19.3799 16.6536C19.2948 16.6216 19.2019 16.6216 19.0161 16.6216H9.54053C7.65491 16.6216 6.7121 16.6216 6.12631 16.0358C5.54053 15.4501 5.54053 14.5072 5.54053 12.6216V8.43244Z" fill="#434343"/>
<path d="M18.2838 4C18.2838 2.11438 18.2838 1.17157 17.698 0.585786C17.1122 0 16.1694 0 14.2838 0H4.00003C2.11441 0 1.1716 0 0.585817 0.585786C3.0756e-05 1.17157 3.0756e-05 2.11438 3.0756e-05 4V12.1892V14.9657C3.0756e-05 15.4404 3.0756e-05 15.6777 0.146727 15.7443C0.293423 15.8109 0.472043 15.6546 0.829283 15.342L4.14969 12.4366C4.28952 12.3143 4.35944 12.2531 4.44447 12.2211C4.5295 12.1892 4.6224 12.1892 4.8082 12.1892H14.2838C16.1694 12.1892 17.1122 12.1892 17.698 11.6034C18.2838 11.0176 18.2838 10.0748 18.2838 8.18919V4Z" fill="#6D6B6B"/>
</svg>
