<svg width="24" height="24" viewBox="0 0 24 24" fill="none" xmlns="http://www.w3.org/2000/svg">
<path fill-rule="evenodd" clip-rule="evenodd" d="M8.72355 14.25C8.50116 14.3248 8.28108 14.4072 8.06372 14.4972C6.8158 15.0141 5.68191 15.7718 4.72679 16.7269C3.87063 17.5831 3.57719 18.302 3.15326 19.3406C3.10426 19.4607 3.05352 19.585 2.99996 19.7143L8.06372 23.1429L11.9999 24L16.7143 22.7143L20.1429 20.5714C20.5715 20.1429 20.3387 20.1224 20.2223 20.1122C20.1058 20.102 20.1058 20.102 21 19.7143C20.9466 19.5853 20.8959 19.4612 20.847 19.3414C20.4229 18.3024 20.1294 17.5833 19.273 16.7269C18.3179 15.7718 17.184 15.0141 15.9361 14.4972C15.7187 14.4072 15.4986 14.3248 15.2762 14.2501C14.3865 14.9862 13.2449 15.4286 11.9999 15.4286C10.7549 15.4286 9.61326 14.9862 8.72355 14.25Z" fill="#434343"/>
<ellipse cx="12" cy="9.42856" rx="5.14286" ry="5.14286" fill="#626060"/>
<path d="M23.5 12C23.5 18.3513 18.3513 23.5 12 23.5C5.64873 23.5 0.5 18.3513 0.5 12C0.5 5.64872 5.64873 0.5 12 0.5C18.3513 0.5 23.5 5.64872 23.5 12Z" stroke="#434343"/>
</svg>
