<svg width="24" height="24" viewBox="0 0 24 24" fill="none" xmlns="http://www.w3.org/2000/svg">
<circle cx="12" cy="12" r="11.5" stroke="#434343"/>
<path fill-rule="evenodd" clip-rule="evenodd" d="M15.312 9.11268C15.2649 8.96253 15.1498 8.84334 15.0014 8.79097L6.6913 5.8585C6.30276 5.72139 5.92444 6.0867 6.04788 6.4798L8.68795 14.8873C8.7351 15.0375 8.85019 15.1567 8.9986 15.209L17.3087 18.1415C17.6972 18.2786 18.0755 17.9133 17.9521 17.5202L15.312 9.11268ZM12.3473 12.3597C12.5459 12.1679 12.5515 11.8513 12.3597 11.6527C12.1679 11.454 11.8513 11.4485 11.6527 11.6403C11.454 11.8321 11.4485 12.1487 11.6403 12.3473C11.8321 12.546 12.1487 12.5515 12.3473 12.3597Z" fill="#434343"/>
</svg>
