<svg width="24" height="19" viewBox="0 0 24 19" fill="none" xmlns="http://www.w3.org/2000/svg">
<path d="M11.735 0.165625C11.8971 0.0642901 12.1029 0.0642902 12.265 0.165625L23.765 7.35312C23.9112 7.44449 24 7.60473 24 7.77712V8.58065H22.527V18.5C22.527 18.7761 22.3031 19 22.027 19H14.3817C14.2437 19 14.1317 18.8881 14.1317 18.75V15.5726C14.1317 15.4345 14.0198 15.3226 13.8817 15.3226H10.1182C9.98014 15.3226 9.86821 15.4345 9.86821 15.5726V18.75C9.86821 18.8881 9.75628 19 9.61821 19H1.97295C1.69681 19 1.47295 18.7761 1.47295 18.5V8.58065H0V7.77712C0 7.60473 0.0888099 7.44449 0.235001 7.35312L11.735 0.165625Z" fill="#434343"/>
</svg>
