<svg width="24" height="23" viewBox="0 0 24 23" fill="none" xmlns="http://www.w3.org/2000/svg">
<path d="M11.3197 5.43655L12.0459 7.00167L12.6949 5.40301C13.5224 3.36471 14.6109 2.17782 15.7134 1.57059C16.811 0.966052 17.9936 0.895886 19.1029 1.21882C21.3668 1.87787 23.25 4.14978 23.25 6.69851C23.25 9.19638 22.1399 11.7509 20.2413 14.2796C18.3458 16.8041 15.7075 19.2447 12.7598 21.4977C12.326 21.8293 11.7191 21.8197 11.2904 21.4706C8.51679 19.2125 5.8637 16.7728 3.90871 14.2472C1.94747 11.7136 0.75 9.17221 0.75 6.69851C0.75 4.12409 2.53397 1.86802 4.71445 1.2174C5.78469 0.898052 6.95302 0.963328 8.08066 1.57331C9.21606 2.18749 10.3687 3.38702 11.3197 5.43655Z" stroke="#434343" stroke-width="1.5"/>
</svg>
