<svg width="24" height="23" viewBox="0 0 24 23" fill="none" xmlns="http://www.w3.org/2000/svg">
<path d="M11.5464 5.05258L12.0306 6.09599L12.4633 5.03022C13.3066 2.95294 14.4281 1.71434 15.5928 1.07286C16.7542 0.433173 18.0061 0.360419 19.1727 0.700033C21.5362 1.38806 23.5 3.75254 23.5 6.41976C23.5 8.9921 22.3575 11.5987 20.4412 14.151C18.527 16.7004 15.8694 19.1569 12.9116 21.4176C12.385 21.8202 11.6501 21.8071 11.1325 21.3858C8.35334 19.1231 5.68322 16.6693 3.71102 14.1215C1.73465 11.5684 0.5 8.97324 0.5 6.41976C0.5 3.73541 2.35598 1.38149 4.64296 0.699087C5.77312 0.361862 7.01035 0.431357 8.19961 1.07467C9.39404 1.72079 10.5791 2.96782 11.5464 5.05258Z" fill="#434343" stroke="#434343"/>
</svg>
