<svg width="24" height="24" viewBox="0 0 24 24" fill="none" xmlns="http://www.w3.org/2000/svg">
<path d="M12 1H22.75C22.8881 1 23 1.11193 23 1.25V22.75C23 22.8881 22.8881 23 22.75 23H12" stroke="#434343" stroke-width="2"/>
<path d="M17.5871 11.6284C17.8077 11.827 17.8077 12.173 17.5871 12.3716L13.8345 15.749C13.5127 16.0386 13 15.8102 13 15.3773V13.7364C13 13.6811 12.9552 13.6364 12.9 13.6364L0.5 13.6364C0.223858 13.6364 0 13.4125 0 13.1364V10.9491C0 10.673 0.223858 10.4491 0.5 10.4491L12.9 10.4491C12.9552 10.4491 13 10.4044 13 10.3491V8.62268C13 8.1898 13.5127 7.96145 13.8345 8.25103L17.5871 11.6284Z" fill="#434343"/>
</svg>
