<svg width="24" height="24" viewBox="0 0 24 24" fill="none" xmlns="http://www.w3.org/2000/svg">
<path d="M12 1H22.75C22.8881 1 23 1.11193 23 1.25V22.75C23 22.8881 22.8881 23 22.75 23H12" stroke="#434343" stroke-width="2"/>
<path d="M0.412941 11.6284C0.192251 11.827 0.192251 12.173 0.412941 12.3716L4.16552 15.749C4.48728 16.0386 5 15.8102 5 15.3773V13.7364C5 13.6811 5.04477 13.6364 5.1 13.6364L17.5 13.6364C17.7761 13.6364 18 13.4125 18 13.1364V10.9491C18 10.673 17.7761 10.4491 17.5 10.4491L5.1 10.4491C5.04477 10.4491 5 10.4044 5 10.3491V8.62268C5 8.1898 4.48728 7.96145 4.16552 8.25103L0.412941 11.6284Z" fill="#434343"/>
</svg>
