<svg width="29" height="29" viewBox="0 0 29 29" fill="none" xmlns="http://www.w3.org/2000/svg">
<path d="M10.0026 18.8204L6.62033 15.4382C6.61642 15.4343 6.61642 15.428 6.62033 15.4241L17.6284 4.41601C17.6323 4.4121 17.6386 4.4121 17.6425 4.41601L21.0247 7.79823L24.407 11.1805C24.4109 11.1844 24.4109 11.1907 24.407 11.1946L13.3989 22.2026C13.395 22.2066 13.3887 22.2066 13.3848 22.2026L10.0026 18.8204Z" fill="#444343"/>
<path d="M3.40784 25.4277C3.40008 25.4302 3.39276 25.4229 3.39526 25.4151L6.60827 15.4467C6.61056 15.4396 6.61957 15.4374 6.62486 15.4427L13.3803 22.1981C13.3856 22.2034 13.3834 22.2124 13.3763 22.2147L3.40784 25.4277Z" fill="#D9D9D9"/>
<path d="M3.40786 25.4277C3.4001 25.4302 3.39278 25.4229 3.39528 25.4152L4.99628 20.448C4.99857 20.4409 5.00758 20.4387 5.01287 20.444L8.37926 23.8104C8.38455 23.8157 8.38238 23.8247 8.37526 23.827L3.40786 25.4277Z" fill="#626060"/>
<path d="M17.6426 4.41595C17.6387 4.41205 17.6387 4.40572 17.6426 4.40181C18.2199 3.82595 18.8784 3.34277 19.5808 2.97967C20.286 2.61509 21.0217 2.37872 21.7458 2.28404C22.4699 2.18936 23.1683 2.23824 23.8011 2.42788C24.4339 2.61752 24.9886 2.94421 25.4337 3.3893C25.8788 3.83439 26.2055 4.38916 26.3952 5.02193C26.5848 5.65471 26.6337 6.3531 26.539 7.07723C26.4443 7.80135 26.2079 8.53704 25.8434 9.24227C25.4803 9.94464 24.9971 10.6031 24.4212 11.1804C24.4173 11.1843 24.411 11.1843 24.4071 11.1804L21.0249 7.79818L17.6426 4.41595Z" fill="#0E0E0E"/>
</svg>
